<?xml version="1.0" encoding="UTF-8"?>
<svg xmlns="http://www.w3.org/2000/svg" xmlns:xlink="http://www.w3.org/1999/xlink" width="2001pt" height="9380pt" viewBox="0 0 2001 9380" version="1.1">
<g id="surface1">
<path style="fill:none;stroke-width:1;stroke-linecap:butt;stroke-linejoin:miter;stroke:rgb(0%,0%,0%);stroke-opacity:1;stroke-miterlimit:10;" d="M 0 173 L 1 179 L 2 200 L 3 210 L 4 226 L 5 229 L 6 220 L 7 221 L 8 228 L 9 233 L 10 237 L 11 238 L 12 249 L 13 261 L 14 284 L 15 285 L 18 291 L 19 284 L 20 285 L 21 279 L 22 295 L 23 313 L 25 315 L 26 317 L 27 318 L 28 316 L 29 344 L 30 345 L 31 347 L 32 352 L 33 356 L 34 352 L 35 379 L 37 389 L 38 392 L 39 394 L 40 395 L 41 401 L 42 424 L 43 429 L 44 432 L 45 446 L 46 454 L 47 464 L 48 459 L 49 455 L 50 467 L 51 501 L 52 509 L 53 523 L 55 529 L 56 535 L 57 557 L 58 559 L 59 562 L 60 564 L 61 572 L 62 573 L 63 576 L 64 584 L 66 588 L 67 587 L 68 588 L 69 594 L 70 598 L 72 600 L 74 604 L 75 609 L 76 626 L 77 633 L 78 641 L 79 642 L 80 649 L 81 655 L 83 661 L 84 681 L 86 685 L 87 684 L 88 685 L 89 687 L 90 691 L 91 694 L 92 696 L 93 697 L 94 705 L 95 706 L 96 710 L 97 740 L 98 741 L 99 749 L 100 740 L 101 744 L 102 749 L 103 750 L 104 753 L 105 759 L 106 754 L 107 736 L 108 731 L 109 732 L 110 722 L 111 720 L 112 732 L 113 745 L 114 754 L 115 769 L 116 771 L 117 772 L 118 766 L 119 768 L 120 778 L 121 780 L 122 768 L 123 771 L 124 775 L 125 804 L 126 809 L 127 810 L 128 806 L 129 808 L 130 818 L 131 813 L 132 801 L 133 804 L 134 813 L 135 817 L 136 836 L 137 827 L 138 833 L 139 836 L 140 840 L 141 860 L 142 865 L 143 877 L 144 843 L 145 845 L 146 871 L 147 872 L 148 874 L 149 885 L 150 900 L 151 904 L 152 906 L 153 909 L 154 911 L 155 910 L 156 919 L 157 932 L 158 938 L 159 954 L 160 961 L 161 962 L 162 964 L 163 979 L 164 980 L 165 992 L 166 997 L 167 1000 L 168 1012 L 169 1017 L 170 1025 L 171 1027 L 172 1028 L 173 1035 L 174 1036 L 175 1052 L 176 1053 L 177 1057 L 178 1068 L 179 1092 L 180 1093 L 181 1104 L 182 1106 L 183 1107 L 184 1112 L 185 1121 L 186 1123 L 187 1126 L 188 1127 L 189 1126 L 190 1132 L 191 1135 L 192 1136 L 193 1138 L 194 1143 L 195 1146 L 196 1148 L 197 1149 L 198 1154 L 199 1172 L 203 1176 L 204 1182 L 205 1183 L 206 1188 L 207 1194 L 208 1195 L 209 1199 L 210 1204 L 211 1208 L 212 1211 L 213 1210 L 214 1190 L 215 1197 L 216 1209 L 218 1211 L 219 1221 L 220 1240 L 221 1241 L 222 1240 L 223 1244 L 224 1247 L 225 1245 L 226 1249 L 227 1266 L 228 1272 L 229 1280 L 230 1285 L 231 1305 L 232 1308 L 233 1315 L 234 1325 L 235 1328 L 236 1357 L 237 1362 L 238 1363 L 239 1365 L 240 1368 L 241 1366 L 242 1376 L 243 1359 L 244 1378 L 245 1380 L 246 1381 L 247 1375 L 248 1376 L 249 1374 L 250 1375 L 252 1379 L 253 1380 L 254 1376 L 255 1377 L 256 1391 L 257 1393 L 258 1399 L 259 1412 L 261 1420 L 262 1427 L 263 1428 L 264 1432 L 265 1434 L 267 1436 L 268 1439 L 269 1440 L 270 1464 L 271 1458 L 272 1461 L 273 1465 L 274 1467 L 275 1502 L 276 1503 L 277 1500 L 278 1514 L 279 1516 L 280 1533 L 281 1535 L 282 1536 L 283 1517 L 284 1547 L 285 1531 L 286 1532 L 287 1543 L 288 1544 L 289 1546 L 290 1519 L 291 1521 L 292 1522 L 293 1529 L 294 1510 L 295 1518 L 296 1520 L 297 1511 L 298 1486 L 299 1489 L 300 1501 L 301 1484 L 302 1479 L 303 1481 L 304 1485 L 305 1493 L 306 1497 L 307 1498 L 308 1500 L 309 1505 L 310 1512 L 311 1534 L 312 1535 L 313 1539 L 314 1522 L 315 1523 L 316 1531 L 317 1548 L 319 1550 L 320 1576 L 321 1586 L 322 1583 L 324 1585 L 325 1599 L 326 1606 L 327 1607 L 328 1609 L 329 1625 L 330 1638 L 331 1643 L 332 1681 L 333 1680 L 334 1688 L 335 1702 L 336 1703 L 337 1705 L 338 1706 L 339 1717 L 340 1716 L 341 1711 L 342 1708 L 343 1719 L 344 1721 L 345 1716 L 346 1728 L 347 1729 L 348 1739 L 349 1765 L 350 1769 L 351 1778 L 352 1779 L 353 1781 L 354 1785 L 355 1786 L 356 1783 L 357 1786 L 358 1787 L 359 1778 L 360 1776 L 361 1797 L 362 1802 L 363 1808 L 364 1811 L 365 1816 L 366 1819 L 367 1818 L 368 1830 L 369 1837 L 370 1839 L 371 1842 L 372 1843 L 373 1845 L 374 1846 L 375 1854 L 376 1842 L 377 1815 L 378 1816 L 379 1829 L 380 1831 L 381 1836 L 382 1842 L 383 1845 L 384 1868 L 386 1870 L 387 1877 L 388 1879 L 389 1897 L 390 1896 L 391 1897 L 392 1899 L 393 1909 L 394 1912 L 395 1913 L 396 1920 L 397 1919 L 398 1921 L 399 1902 L 400 1921 L 401 1923 L 402 1928 L 403 1935 L 404 1936 L 405 1941 L 406 1944 L 407 1964 L 408 1962 L 409 1971 L 410 1983 L 412 1987 L 413 2000 L 414 2002 L 415 2005 L 416 2006 L 417 2026 L 418 2024 L 419 2025 L 421 2029 L 422 2026 L 423 2028 L 424 2029 L 425 2044 L 426 2043 L 427 2047 L 428 2055 L 429 2056 L 430 2068 L 431 2085 L 432 2086 L 433 2096 L 434 2097 L 435 2108 L 436 2105 L 437 2106 L 438 2103 L 439 2098 L 440 2101 L 441 2102 L 442 2107 L 443 2127 L 444 2128 L 445 2131 L 446 2132 L 447 2123 L 448 2126 L 449 2141 L 450 2160 L 451 2163 L 453 2171 L 454 2179 L 455 2184 L 456 2187 L 458 2209 L 459 2218 L 460 2219 L 461 2221 L 462 2236 L 463 2239 L 464 2245 L 465 2249 L 466 2268 L 467 2272 L 468 2269 L 469 2270 L 470 2262 L 471 2261 L 472 2263 L 473 2260 L 474 2263 L 475 2265 L 476 2270 L 477 2285 L 478 2286 L 479 2290 L 480 2272 L 481 2259 L 482 2267 L 483 2268 L 484 2283 L 486 2289 L 487 2290 L 488 2300 L 489 2304 L 491 2306 L 492 2294 L 493 2295 L 494 2324 L 495 2331 L 496 2345 L 497 2352 L 498 2356 L 499 2357 L 500 2362 L 501 2369 L 502 2377 L 503 2398 L 504 2405 L 505 2397 L 506 2398 L 507 2391 L 508 2394 L 509 2399 L 510 2400 L 511 2411 L 512 2412 L 513 2415 L 514 2416 L 515 2421 L 516 2417 L 517 2395 L 518 2397 L 519 2404 L 520 2414 L 521 2432 L 522 2405 L 523 2406 L 524 2423 L 526 2427 L 527 2436 L 528 2442 L 529 2443 L 530 2451 L 531 2450 L 532 2451 L 533 2479 L 534 2484 L 535 2491 L 536 2494 L 537 2491 L 538 2480 L 539 2485 L 541 2487 L 542 2497 L 543 2499 L 544 2526 L 545 2525 L 546 2526 L 547 2528 L 548 2526 L 549 2528 L 551 2536 L 552 2563 L 553 2566 L 554 2580 L 555 2584 L 556 2595 L 557 2603 L 558 2615 L 559 2620 L 560 2627 L 561 2641 L 562 2645 L 563 2643 L 564 2659 L 565 2664 L 566 2665 L 567 2669 L 568 2671 L 569 2678 L 570 2687 L 571 2688 L 572 2713 L 573 2717 L 574 2729 L 575 2732 L 576 2733 L 577 2732 L 578 2734 L 579 2735 L 580 2737 L 581 2718 L 583 2720 L 584 2727 L 585 2736 L 587 2740 L 588 2749 L 589 2743 L 590 2785 L 591 2799 L 592 2800 L 593 2821 L 594 2828 L 595 2829 L 596 2832 L 597 2834 L 598 2852 L 599 2853 L 600 2850 L 601 2863 L 602 2866 L 603 2867 L 604 2865 L 605 2860 L 606 2861 L 607 2869 L 608 2862 L 609 2864 L 610 2862 L 611 2868 L 612 2873 L 613 2881 L 614 2887 L 615 2888 L 616 2891 L 617 2898 L 618 2892 L 619 2901 L 620 2903 L 621 2901 L 622 2906 L 623 2910 L 624 2911 L 625 2922 L 626 2919 L 627 2918 L 628 2912 L 629 2910 L 630 2924 L 631 2921 L 632 2923 L 633 2924 L 634 2931 L 635 2945 L 636 2946 L 637 2918 L 638 2946 L 639 2947 L 640 2951 L 641 2937 L 642 2938 L 643 2940 L 644 2941 L 645 2945 L 646 2960 L 647 2965 L 648 2964 L 651 2967 L 652 2979 L 653 3000 L 654 3006 L 656 3010 L 657 3003 L 658 3009 L 659 3003 L 660 3012 L 661 3026 L 662 3032 L 663 3036 L 665 3046 L 666 3058 L 667 3059 L 668 3070 L 669 3059 L 670 3056 L 671 3060 L 672 3070 L 673 3078 L 674 3084 L 675 3085 L 676 3089 L 678 3095 L 679 3078 L 680 3113 L 681 3107 L 682 3109 L 683 3121 L 684 3129 L 685 3118 L 686 3128 L 687 3130 L 690 3133 L 691 3132 L 692 3128 L 693 3130 L 694 3149 L 695 3159 L 696 3162 L 697 3172 L 698 3180 L 699 3195 L 701 3197 L 702 3209 L 703 3214 L 704 3216 L 706 3218 L 707 3221 L 708 3234 L 710 3238 L 711 3246 L 712 3212 L 713 3205 L 714 3214 L 715 3243 L 716 3245 L 717 3250 L 718 3252 L 719 3268 L 720 3271 L 721 3270 L 722 3258 L 723 3253 L 724 3264 L 725 3273 L 726 3281 L 727 3282 L 728 3288 L 729 3291 L 730 3300 L 731 3310 L 732 3312 L 733 3331 L 734 3329 L 736 3331 L 737 3344 L 738 3366 L 739 3367 L 740 3381 L 741 3385 L 742 3386 L 743 3395 L 745 3397 L 746 3433 L 747 3422 L 748 3433 L 749 3426 L 750 3421 L 751 3422 L 752 3427 L 754 3439 L 755 3443 L 756 3445 L 757 3442 L 758 3447 L 759 3446 L 760 3449 L 761 3458 L 762 3470 L 763 3473 L 764 3479 L 765 3478 L 768 3484 L 769 3495 L 770 3494 L 771 3492 L 772 3499 L 773 3491 L 774 3495 L 775 3506 L 777 3518 L 778 3523 L 779 3538 L 781 3554 L 782 3559 L 783 3565 L 784 3580 L 785 3583 L 786 3584 L 787 3591 L 788 3592 L 789 3607 L 790 3609 L 791 3633 L 792 3636 L 793 3634 L 794 3637 L 795 3638 L 796 3642 L 797 3643 L 798 3652 L 799 3653 L 801 3657 L 802 3656 L 803 3657 L 804 3656 L 805 3677 L 806 3678 L 807 3716 L 808 3727 L 809 3730 L 810 3751 L 811 3752 L 812 3776 L 813 3778 L 814 3775 L 815 3779 L 816 3782 L 817 3783 L 818 3817 L 819 3819 L 820 3822 L 822 3826 L 823 3841 L 825 3843 L 826 3864 L 827 3868 L 828 3875 L 829 3880 L 830 3896 L 831 3898 L 834 3901 L 835 3907 L 836 3914 L 837 3904 L 838 3908 L 839 3917 L 841 3919 L 842 3926 L 843 3939 L 844 3945 L 845 3938 L 846 3956 L 847 3967 L 848 3968 L 849 3972 L 850 3975 L 851 3974 L 853 3976 L 854 3981 L 856 3983 L 857 3977 L 859 3987 L 860 3995 L 861 4012 L 862 4025 L 863 4021 L 864 4046 L 865 4048 L 866 4053 L 867 4069 L 868 4078 L 869 4083 L 870 4081 L 871 4080 L 872 4082 L 873 4091 L 874 4099 L 875 4100 L 876 4097 L 877 4109 L 878 4112 L 879 4126 L 883 4130 L 884 4133 L 885 4132 L 886 4136 L 887 4156 L 888 4160 L 889 4161 L 890 4159 L 892 4161 L 893 4178 L 894 4180 L 895 4197 L 896 4195 L 899 4201 L 900 4200 L 901 4196 L 902 4219 L 904 4221 L 905 4205 L 906 4219 L 907 4224 L 908 4257 L 909 4262 L 910 4263 L 911 4266 L 912 4267 L 913 4266 L 914 4271 L 916 4273 L 917 4285 L 918 4286 L 919 4285 L 920 4266 L 921 4242 L 922 4248 L 923 4270 L 924 4271 L 925 4293 L 926 4309 L 927 4314 L 928 4340 L 929 4343 L 930 4348 L 931 4347 L 932 4348 L 933 4351 L 934 4352 L 935 4364 L 936 4365 L 937 4388 L 938 4390 L 939 4417 L 940 4410 L 941 4426 L 942 4431 L 943 4429 L 944 4434 L 945 4424 L 946 4432 L 947 4421 L 948 4440 L 949 4441 L 950 4428 L 951 4438 L 952 4456 L 953 4457 L 954 4460 L 955 4468 L 956 4471 L 957 4473 L 958 4490 L 959 4477 L 960 4478 L 961 4486 L 962 4475 L 963 4487 L 964 4490 L 965 4497 L 966 4524 L 967 4533 L 970 4545 L 971 4548 L 973 4556 L 974 4558 L 975 4571 L 976 4573 L 977 4578 L 978 4580 L 979 4581 L 980 4542 L 982 4548 L 983 4549 L 984 4536 L 985 4551 L 986 4557 L 987 4556 L 988 4547 L 989 4548 L 990 4567 L 991 4552 L 992 4554 L 993 4552 L 994 4576 L 995 4577 L 996 4603 L 997 4616 L 998 4633 L 999 4634 L 1000 4639 L 1001 4642 L 1002 4651 L 1003 4656 L 1004 4657 L 1005 4659 L 1007 4667 L 1008 4673 L 1009 4695 L 1010 4712 L 1011 4713 L 1012 4720 L 1013 4718 L 1014 4721 L 1015 4737 L 1016 4743 L 1017 4746 L 1018 4778 L 1019 4779 L 1020 4793 L 1021 4768 L 1022 4773 L 1023 4776 L 1024 4778 L 1025 4796 L 1028 4802 L 1029 4803 L 1030 4822 L 1031 4823 L 1032 4831 L 1033 4836 L 1034 4831 L 1035 4833 L 1036 4840 L 1037 4842 L 1038 4847 L 1039 4868 L 1040 4870 L 1041 4869 L 1042 4875 L 1043 4876 L 1044 4879 L 1045 4881 L 1046 4891 L 1047 4892 L 1048 4909 L 1049 4903 L 1050 4901 L 1051 4902 L 1052 4930 L 1053 4933 L 1054 4932 L 1055 4933 L 1056 4936 L 1057 4937 L 1058 4943 L 1059 4945 L 1060 4948 L 1061 4949 L 1062 4943 L 1063 4963 L 1064 4956 L 1065 4967 L 1066 4969 L 1067 4961 L 1068 4966 L 1070 4974 L 1071 4961 L 1072 4964 L 1073 4952 L 1074 4953 L 1075 4981 L 1076 4984 L 1077 4966 L 1078 4970 L 1079 4971 L 1080 4975 L 1081 4966 L 1082 4968 L 1083 4966 L 1084 4968 L 1085 4974 L 1086 4971 L 1087 4988 L 1088 4989 L 1089 4995 L 1090 4996 L 1091 5001 L 1092 5004 L 1093 5005 L 1094 5008 L 1095 5016 L 1096 5018 L 1097 5007 L 1098 5010 L 1099 5011 L 1100 5024 L 1101 5027 L 1103 5037 L 1104 5033 L 1105 5034 L 1106 5045 L 1107 5071 L 1108 5068 L 1110 5070 L 1111 5088 L 1112 5086 L 1113 5088 L 1114 5114 L 1115 5133 L 1116 5144 L 1117 5145 L 1118 5152 L 1119 5161 L 1120 5154 L 1122 5156 L 1123 5159 L 1124 5170 L 1125 5176 L 1126 5189 L 1127 5190 L 1128 5200 L 1129 5204 L 1131 5206 L 1132 5221 L 1135 5224 L 1136 5217 L 1138 5219 L 1139 5225 L 1140 5203 L 1141 5210 L 1142 5212 L 1143 5213 L 1144 5215 L 1145 5214 L 1146 5215 L 1147 5221 L 1148 5222 L 1149 5233 L 1150 5242 L 1151 5256 L 1152 5258 L 1153 5256 L 1154 5281 L 1155 5286 L 1156 5315 L 1157 5336 L 1158 5337 L 1159 5345 L 1160 5348 L 1161 5341 L 1162 5336 L 1163 5341 L 1164 5344 L 1165 5350 L 1166 5341 L 1167 5342 L 1168 5337 L 1169 5339 L 1170 5346 L 1171 5347 L 1172 5364 L 1174 5368 L 1175 5361 L 1176 5362 L 1177 5365 L 1178 5358 L 1179 5370 L 1180 5376 L 1181 5377 L 1182 5380 L 1185 5383 L 1186 5388 L 1187 5396 L 1188 5405 L 1189 5396 L 1190 5410 L 1191 5431 L 1192 5432 L 1193 5436 L 1194 5447 L 1195 5456 L 1196 5457 L 1197 5462 L 1198 5475 L 1199 5476 L 1200 5490 L 1201 5493 L 1202 5503 L 1203 5504 L 1204 5512 L 1205 5513 L 1206 5527 L 1207 5542 L 1208 5546 L 1209 5545 L 1210 5547 L 1211 5555 L 1212 5558 L 1213 5577 L 1214 5613 L 1215 5614 L 1216 5620 L 1217 5623 L 1218 5636 L 1219 5651 L 1220 5660 L 1221 5665 L 1222 5668 L 1224 5676 L 1225 5687 L 1226 5712 L 1227 5707 L 1229 5709 L 1230 5711 L 1231 5712 L 1232 5714 L 1233 5715 L 1234 5717 L 1235 5727 L 1236 5731 L 1237 5746 L 1238 5754 L 1239 5755 L 1240 5758 L 1241 5759 L 1242 5770 L 1243 5775 L 1244 5799 L 1245 5789 L 1246 5794 L 1247 5800 L 1248 5802 L 1249 5813 L 1250 5808 L 1251 5812 L 1252 5832 L 1253 5830 L 1254 5839 L 1255 5842 L 1256 5825 L 1258 5835 L 1259 5836 L 1260 5847 L 1261 5851 L 1262 5849 L 1263 5855 L 1264 5816 L 1265 5818 L 1266 5829 L 1267 5830 L 1268 5829 L 1269 5830 L 1270 5858 L 1272 5860 L 1273 5862 L 1274 5867 L 1275 5868 L 1276 5863 L 1277 5864 L 1278 5869 L 1279 5872 L 1280 5878 L 1281 5885 L 1282 5888 L 1283 5890 L 1284 5884 L 1285 5875 L 1286 5876 L 1287 5880 L 1288 5886 L 1289 5889 L 1290 5890 L 1291 5892 L 1292 5895 L 1293 5896 L 1294 5895 L 1296 5897 L 1297 5895 L 1298 5907 L 1299 5906 L 1300 5908 L 1301 5897 L 1302 5900 L 1303 5913 L 1304 5915 L 1305 5914 L 1306 5917 L 1307 5915 L 1308 5916 L 1309 5920 L 1310 5923 L 1311 5929 L 1312 5931 L 1313 5936 L 1314 5944 L 1315 5929 L 1316 5932 L 1317 5934 L 1318 5945 L 1319 5948 L 1320 5949 L 1321 5951 L 1322 5957 L 1323 5967 L 1325 5969 L 1326 5974 L 1327 5975 L 1328 5982 L 1329 5983 L 1330 5990 L 1331 5994 L 1332 5989 L 1333 5993 L 1334 5996 L 1335 5986 L 1336 5987 L 1337 5990 L 1338 5991 L 1340 5995 L 1341 5998 L 1342 5999 L 1343 5990 L 1344 5994 L 1345 5996 L 1346 6010 L 1347 6016 L 1348 6032 L 1349 6039 L 1350 6041 L 1351 6044 L 1352 6057 L 1356 6061 L 1357 6063 L 1358 6064 L 1359 6067 L 1360 6073 L 1362 6075 L 1363 6070 L 1364 6071 L 1365 6076 L 1366 6077 L 1367 6071 L 1368 6083 L 1369 6088 L 1370 6096 L 1371 6095 L 1372 6100 L 1373 6101 L 1374 6106 L 1375 6109 L 1376 6111 L 1377 6112 L 1378 6121 L 1379 6143 L 1380 6151 L 1381 6175 L 1382 6179 L 1383 6174 L 1384 6175 L 1385 6185 L 1386 6186 L 1387 6184 L 1388 6195 L 1390 6197 L 1391 6188 L 1392 6195 L 1395 6198 L 1396 6204 L 1397 6209 L 1398 6222 L 1399 6233 L 1400 6231 L 1401 6222 L 1403 6224 L 1404 6233 L 1405 6235 L 1406 6239 L 1407 6229 L 1408 6259 L 1409 6286 L 1410 6295 L 1411 6269 L 1412 6273 L 1413 6274 L 1414 6265 L 1415 6266 L 1416 6264 L 1417 6259 L 1418 6260 L 1419 6265 L 1420 6268 L 1421 6280 L 1422 6281 L 1423 6283 L 1424 6277 L 1425 6279 L 1426 6311 L 1427 6340 L 1428 6342 L 1429 6345 L 1430 6353 L 1431 6375 L 1432 6399 L 1433 6425 L 1434 6423 L 1435 6428 L 1436 6448 L 1437 6449 L 1438 6456 L 1439 6460 L 1441 6470 L 1442 6477 L 1443 6493 L 1444 6494 L 1445 6499 L 1446 6521 L 1447 6522 L 1448 6524 L 1449 6525 L 1450 6536 L 1452 6538 L 1453 6526 L 1454 6550 L 1456 6552 L 1457 6559 L 1459 6563 L 1460 6564 L 1461 6584 L 1462 6585 L 1463 6588 L 1464 6600 L 1465 6610 L 1466 6612 L 1467 6616 L 1468 6619 L 1469 6639 L 1470 6644 L 1471 6646 L 1472 6647 L 1473 6644 L 1474 6629 L 1475 6635 L 1476 6646 L 1477 6648 L 1478 6659 L 1479 6662 L 1480 6641 L 1481 6637 L 1482 6626 L 1483 6627 L 1484 6630 L 1485 6632 L 1486 6643 L 1488 6645 L 1489 6656 L 1490 6658 L 1491 6663 L 1492 6680 L 1493 6675 L 1495 6681 L 1496 6682 L 1497 6680 L 1498 6692 L 1499 6702 L 1500 6707 L 1502 6709 L 1503 6717 L 1504 6719 L 1505 6733 L 1506 6734 L 1507 6730 L 1508 6751 L 1509 6757 L 1510 6766 L 1511 6770 L 1512 6810 L 1513 6812 L 1514 6816 L 1515 6810 L 1516 6817 L 1517 6821 L 1518 6823 L 1519 6828 L 1520 6844 L 1521 6838 L 1522 6841 L 1523 6846 L 1524 6843 L 1525 6844 L 1526 6848 L 1527 6851 L 1528 6853 L 1529 6868 L 1530 6870 L 1531 6884 L 1532 6886 L 1533 6896 L 1534 6886 L 1535 6887 L 1536 6891 L 1537 6896 L 1538 6905 L 1539 6902 L 1540 6903 L 1541 6902 L 1542 6911 L 1543 6951 L 1544 6955 L 1545 6958 L 1546 6940 L 1547 6943 L 1548 6945 L 1549 6946 L 1550 6945 L 1551 6943 L 1552 6944 L 1553 6949 L 1554 6950 L 1555 6952 L 1556 6953 L 1557 6958 L 1558 6962 L 1559 6970 L 1560 6974 L 1561 6977 L 1562 7018 L 1563 7023 L 1564 7027 L 1568 7035 L 1569 7057 L 1570 7058 L 1571 7060 L 1572 7071 L 1573 7072 L 1575 7102 L 1576 7111 L 1577 7138 L 1578 7118 L 1579 7136 L 1580 7142 L 1581 7143 L 1582 7162 L 1583 7163 L 1584 7166 L 1585 7153 L 1587 7151 L 1588 7154 L 1589 7156 L 1590 7178 L 1591 7177 L 1592 7184 L 1593 7188 L 1595 7198 L 1596 7205 L 1597 7217 L 1598 7248 L 1599 7247 L 1602 7253 L 1604 7255 L 1605 7263 L 1606 7265 L 1607 7280 L 1608 7287 L 1609 7315 L 1610 7323 L 1611 7332 L 1612 7333 L 1613 7323 L 1614 7324 L 1615 7332 L 1616 7334 L 1617 7338 L 1618 7339 L 1619 7341 L 1620 7347 L 1621 7346 L 1622 7347 L 1623 7365 L 1624 7370 L 1625 7372 L 1627 7374 L 1628 7376 L 1629 7381 L 1630 7383 L 1631 7401 L 1632 7402 L 1633 7421 L 1634 7433 L 1635 7438 L 1637 7440 L 1638 7476 L 1639 7484 L 1640 7504 L 1641 7510 L 1642 7526 L 1643 7527 L 1644 7531 L 1645 7532 L 1646 7539 L 1647 7542 L 1648 7553 L 1649 7555 L 1650 7560 L 1651 7558 L 1653 7562 L 1654 7578 L 1655 7581 L 1656 7587 L 1657 7599 L 1658 7600 L 1659 7616 L 1660 7627 L 1661 7645 L 1662 7658 L 1663 7659 L 1664 7646 L 1665 7648 L 1666 7652 L 1667 7650 L 1668 7651 L 1669 7667 L 1671 7675 L 1672 7682 L 1674 7684 L 1675 7687 L 1676 7686 L 1677 7688 L 1679 7710 L 1680 7699 L 1681 7698 L 1682 7699 L 1683 7706 L 1684 7724 L 1685 7725 L 1686 7740 L 1687 7741 L 1688 7740 L 1689 7741 L 1690 7747 L 1691 7742 L 1692 7749 L 1693 7758 L 1694 7769 L 1695 7770 L 1696 7785 L 1697 7793 L 1698 7794 L 1699 7797 L 1700 7805 L 1701 7806 L 1702 7826 L 1704 7828 L 1705 7826 L 1706 7827 L 1707 7837 L 1708 7843 L 1709 7852 L 1710 7867 L 1712 7881 L 1713 7875 L 1715 7873 L 1716 7887 L 1717 7890 L 1718 7919 L 1719 7918 L 1720 7926 L 1721 7935 L 1722 7936 L 1723 7935 L 1724 7941 L 1725 7942 L 1726 7940 L 1728 7958 L 1729 7960 L 1730 7963 L 1731 7961 L 1733 7965 L 1734 7960 L 1735 7983 L 1736 7980 L 1737 7984 L 1739 7988 L 1740 8000 L 1741 8009 L 1742 8014 L 1743 8013 L 1745 8015 L 1746 8022 L 1747 8023 L 1748 8020 L 1749 8035 L 1750 8046 L 1751 8053 L 1752 8050 L 1753 8046 L 1754 8057 L 1755 8056 L 1756 8085 L 1759 8088 L 1760 8092 L 1761 8094 L 1762 8095 L 1763 8094 L 1764 8096 L 1765 8099 L 1766 8128 L 1767 8159 L 1768 8167 L 1769 8185 L 1770 8200 L 1771 8212 L 1772 8214 L 1773 8219 L 1774 8246 L 1775 8248 L 1776 8261 L 1777 8262 L 1778 8242 L 1779 8236 L 1780 8237 L 1781 8247 L 1782 8243 L 1783 8242 L 1784 8244 L 1786 8268 L 1787 8270 L 1788 8311 L 1789 8323 L 1791 8325 L 1792 8327 L 1793 8349 L 1794 8347 L 1795 8348 L 1796 8347 L 1797 8353 L 1798 8366 L 1799 8384 L 1800 8386 L 1801 8389 L 1802 8404 L 1803 8405 L 1805 8411 L 1806 8415 L 1807 8428 L 1808 8437 L 1809 8423 L 1810 8427 L 1811 8455 L 1812 8463 L 1813 8466 L 1814 8470 L 1815 8471 L 1816 8475 L 1817 8476 L 1818 8479 L 1819 8484 L 1820 8483 L 1821 8486 L 1822 8485 L 1823 8498 L 1824 8502 L 1825 8503 L 1826 8507 L 1827 8517 L 1828 8518 L 1829 8531 L 1830 8532 L 1831 8545 L 1832 8548 L 1833 8561 L 1834 8569 L 1835 8573 L 1836 8575 L 1837 8580 L 1838 8581 L 1840 8589 L 1841 8598 L 1842 8604 L 1843 8630 L 1844 8628 L 1845 8625 L 1846 8620 L 1847 8625 L 1849 8627 L 1850 8620 L 1851 8631 L 1852 8643 L 1853 8645 L 1854 8669 L 1855 8673 L 1856 8674 L 1857 8679 L 1858 8687 L 1859 8698 L 1860 8731 L 1861 8738 L 1862 8746 L 1863 8785 L 1864 8760 L 1865 8764 L 1866 8760 L 1867 8761 L 1868 8767 L 1870 8769 L 1872 8773 L 1873 8768 L 1874 8766 L 1875 8767 L 1876 8785 L 1877 8789 L 1878 8790 L 1879 8802 L 1880 8801 L 1881 8802 L 1882 8809 L 1883 8820 L 1884 8823 L 1885 8824 L 1886 8829 L 1887 8830 L 1888 8836 L 1890 8834 L 1891 8828 L 1892 8829 L 1893 8833 L 1894 8844 L 1895 8852 L 1896 8857 L 1897 8863 L 1898 8862 L 1899 8863 L 1900 8853 L 1901 8858 L 1903 8860 L 1904 8845 L 1905 8844 L 1906 8823 L 1907 8822 L 1908 8850 L 1910 8852 L 1911 8863 L 1912 8879 L 1913 8881 L 1914 8882 L 1915 8889 L 1916 8892 L 1917 8894 L 1918 8910 L 1919 8908 L 1920 8912 L 1921 8933 L 1922 8932 L 1923 8911 L 1924 8906 L 1925 8908 L 1926 8909 L 1927 8919 L 1929 8921 L 1930 8933 L 1931 8935 L 1932 8945 L 1933 8947 L 1934 8948 L 1935 8951 L 1936 8961 L 1937 8962 L 1938 8972 L 1939 8989 L 1940 8990 L 1941 8999 L 1942 9000 L 1943 9018 L 1944 9028 L 1945 9029 L 1946 9035 L 1947 9031 L 1948 9043 L 1949 9044 L 1950 9049 L 1951 9078 L 1952 9074 L 1953 9078 L 1954 9081 L 1955 9074 L 1956 9077 L 1957 9071 L 1958 9054 L 1959 9055 L 1960 9060 L 1961 9062 L 1962 9065 L 1963 9094 L 1964 9099 L 1965 9108 L 1966 9125 L 1967 9136 L 1968 9137 L 1969 9143 L 1970 9147 L 1971 9150 L 1972 9162 L 1974 9170 L 1975 9171 L 1976 9174 L 1977 9188 L 1978 9198 L 1979 9204 L 1980 9207 L 1981 9217 L 1984 9256 L 1985 9264 L 1986 9273 L 1987 9275 L 1988 9286 L 1989 9293 L 1990 9299 L 1991 9300 L 1992 9317 L 1993 9320 L 1994 9324 L 1995 9348 L 1996 9351 L 1997 9356 L 1998 9372 L 1999 9380 "/>
<path style="fill:none;stroke-width:1;stroke-linecap:butt;stroke-linejoin:miter;stroke:rgb(0%,100%,0%);stroke-opacity:0.7;stroke-miterlimit:10;" d="M 0 173 L 1 184 L 2 196.332031 L 3 212 L 4 221.667969 L 5 225 L 6 223.332031 L 7 223 L 8 227.332031 L 9 232.667969 L 10 236 L 11 241.332031 L 12 249.332031 L 13 264.667969 L 14 276.667969 L 15 285.332031 L 16 287 L 17 289 L 18 288 L 19 286.667969 L 20 282.667969 L 21 286.332031 L 22 295.667969 L 23 307.332031 L 24 314 L 25 315.332031 L 26 316.667969 L 27 317 L 29 335 L 30 345.332031 L 31 348 L 32 351.667969 L 33 353.332031 L 34 362.332031 L 35 371.667969 L 36 384 L 37 388.332031 L 38 391.667969 L 39 393.667969 L 40 396.667969 L 41 406.667969 L 42 418 L 43 428.332031 L 44 435.667969 L 45 444 L 46 454.667969 L 47 459 L 48 459.332031 L 49 460.332031 L 50 474.332031 L 51 492.332031 L 52 511 L 53 519.332031 L 54 526 L 55 530 L 56 540.332031 L 57 550.332031 L 58 559.332031 L 59 561.667969 L 60 566 L 61 569.667969 L 63 577.667969 L 64 582 L 65 586 L 66 587 L 67 587.667969 L 68 589.667969 L 69 593.332031 L 70 597 L 71 599 L 72 600.332031 L 73 602 L 74 605 L 75 613 L 76 622.667969 L 77 633.332031 L 78 638.667969 L 79 644 L 80 648.667969 L 81 654 L 82 658 L 83 666.667969 L 84 675 L 85 683 L 86 684 L 87 684.667969 L 88 685.332031 L 89 687.667969 L 91 693.667969 L 92 695.667969 L 93 699.332031 L 94 702.667969 L 95 707 L 96 718.667969 L 97 730.332031 L 98 743.332031 L 99 743.332031 L 100 744.332031 L 101 744.332031 L 102 747.667969 L 103 750.667969 L 104 754 L 105 755.332031 L 106 749.667969 L 107 740.332031 L 108 733 L 109 728.332031 L 110 724.667969 L 111 724.667969 L 112 732.332031 L 113 743.667969 L 114 756 L 115 764.667969 L 116 770.667969 L 118 768.667969 L 119 770.667969 L 120 775.332031 L 121 775.332031 L 122 773 L 123 771.332031 L 124 783.332031 L 125 796 L 126 807.667969 L 127 808.332031 L 128 808 L 129 810.667969 L 130 813 L 131 810.667969 L 132 806 L 133 806 L 134 811.332031 L 135 822 L 136 826.667969 L 137 832 L 138 832 L 139 836.332031 L 140 845.332031 L 141 855 L 142 867.332031 L 143 861.667969 L 144 855 L 145 853 L 146 862.667969 L 147 872.332031 L 148 877 L 149 886.332031 L 150 896.332031 L 151 903.332031 L 152 906.332031 L 153 908.667969 L 154 910 L 155 913.332031 L 156 920.332031 L 157 929.667969 L 158 941.332031 L 159 951 L 160 959 L 161 962.332031 L 163 974.332031 L 164 983.667969 L 165 989.667969 L 166 996.332031 L 168 1009.667969 L 169 1018 L 170 1023 L 171 1026.667969 L 172 1030 L 173 1033 L 174 1041 L 175 1047 L 176 1054 L 177 1059.332031 L 178 1072.332031 L 180 1096.332031 L 182 1105.667969 L 183 1108.332031 L 184 1113.332031 L 185 1118.667969 L 186 1123.332031 L 187 1125.332031 L 188 1126.332031 L 189 1128.332031 L 190 1131 L 191 1134.332031 L 192 1136.332031 L 193 1139 L 194 1142.332031 L 195 1145.667969 L 196 1147.667969 L 197 1150.332031 L 199 1166.332031 L 200 1173 L 202 1175 L 203 1177.667969 L 204 1180.332031 L 207 1192.332031 L 208 1196 L 209 1199.332031 L 210 1203.667969 L 211 1207.667969 L 212 1209.667969 L 213 1203.667969 L 214 1199 L 215 1198.667969 L 216 1205.332031 L 217 1210 L 218 1214 L 220 1234 L 221 1240.332031 L 222 1241.667969 L 223 1243.667969 L 224 1245.332031 L 225 1247 L 226 1253.332031 L 227 1262.332031 L 228 1272.667969 L 229 1279 L 230 1290 L 231 1299.332031 L 232 1309.332031 L 234 1322.667969 L 235 1336.667969 L 236 1349 L 237 1360.667969 L 238 1363.332031 L 239 1365.332031 L 240 1366.332031 L 241 1370 L 242 1367 L 243 1371 L 244 1372.332031 L 245 1379.667969 L 246 1378.667969 L 247 1377.332031 L 248 1375 L 249 1375 L 250 1375.332031 L 252 1378.667969 L 253 1378.332031 L 254 1377.667969 L 255 1381.332031 L 256 1387 L 257 1394.332031 L 258 1401.332031 L 259 1409 L 260 1416 L 261 1421 L 263 1429 L 264 1431.332031 L 265 1433.667969 L 266 1435 L 267 1436.667969 L 268 1438.332031 L 269 1447.667969 L 270 1454 L 271 1461 L 272 1461.332031 L 273 1464.332031 L 274 1478 L 275 1490.667969 L 276 1501.667969 L 277 1505.667969 L 278 1510 L 279 1521 L 280 1528 L 281 1534.667969 L 282 1529.332031 L 283 1533.332031 L 284 1531.667969 L 285 1536.667969 L 286 1535.332031 L 287 1539.667969 L 288 1544.332031 L 289 1536.332031 L 290 1528.667969 L 291 1520.667969 L 292 1524 L 293 1520.332031 L 294 1519 L 295 1516 L 296 1516.332031 L 297 1505.667969 L 298 1495.332031 L 299 1492 L 300 1491.332031 L 301 1488 L 302 1481.332031 L 303 1481.667969 L 304 1486.332031 L 305 1491.667969 L 306 1496 L 307 1498.332031 L 308 1501 L 309 1505.667969 L 310 1517 L 311 1527 L 312 1536 L 314 1528 L 315 1525.332031 L 317 1542.667969 L 318 1549 L 319 1558.332031 L 320 1570.667969 L 321 1581.667969 L 322 1584.332031 L 323 1584 L 324 1589.332031 L 325 1596.667969 L 326 1604 L 327 1607.332031 L 328 1613.667969 L 329 1624 L 330 1635.332031 L 331 1654 L 332 1668 L 333 1683 L 334 1690 L 335 1697.667969 L 336 1703.332031 L 337 1704.667969 L 338 1709.332031 L 339 1713 L 340 1714.667969 L 341 1711.667969 L 342 1712.667969 L 343 1716 L 344 1718.667969 L 345 1721.667969 L 346 1724.332031 L 347 1732 L 348 1744.332031 L 349 1757.667969 L 350 1770.667969 L 351 1775.332031 L 352 1779.332031 L 353 1781.667969 L 354 1784 L 355 1784.667969 L 357 1785.332031 L 358 1783.667969 L 359 1780.332031 L 360 1783.667969 L 361 1791.667969 L 362 1802.332031 L 364 1811.667969 L 365 1815.332031 L 366 1817.667969 L 367 1822.332031 L 368 1828.332031 L 369 1835.332031 L 370 1839.332031 L 372 1843.332031 L 373 1844.667969 L 374 1848.332031 L 375 1847.332031 L 376 1837 L 377 1824.332031 L 378 1820 L 379 1825.332031 L 380 1832 L 381 1836.332031 L 382 1841 L 383 1851.667969 L 384 1860.667969 L 385 1869 L 386 1872 L 387 1875.332031 L 388 1884.332031 L 389 1890.667969 L 390 1896.667969 L 391 1897.332031 L 392 1901.667969 L 393 1906.667969 L 394 1911.332031 L 395 1915 L 396 1917.332031 L 397 1920 L 398 1914 L 399 1914.667969 L 400 1915.332031 L 401 1924 L 402 1928.667969 L 404 1937.332031 L 405 1940.332031 L 406 1949.667969 L 407 1956.667969 L 408 1965.667969 L 409 1972 L 410 1979.667969 L 411 1985 L 412 1990.667969 L 413 1996.332031 L 414 2002.332031 L 415 2004.332031 L 416 2012.332031 L 417 2018.667969 L 418 2025 L 419 2025.332031 L 420 2027 L 421 2027.332031 L 422 2027.667969 L 423 2027.667969 L 424 2033.667969 L 425 2038.667969 L 426 2044.667969 L 427 2048.332031 L 428 2052.667969 L 429 2059.667969 L 431 2079.667969 L 432 2089 L 433 2093 L 434 2100.332031 L 436 2106.332031 L 437 2104.667969 L 438 2102.332031 L 439 2100.667969 L 440 2100.332031 L 441 2103.332031 L 443 2120.667969 L 444 2128.667969 L 445 2130.332031 L 446 2128.667969 L 447 2127 L 448 2130 L 449 2142.332031 L 450 2154.667969 L 451 2163.332031 L 452 2167 L 453 2172.332031 L 454 2178 L 455 2183.332031 L 456 2189.667969 L 457 2198 L 458 2208.332031 L 459 2215.332031 L 460 2219.332031 L 461 2225.332031 L 462 2232 L 463 2240 L 464 2244.332031 L 465 2254 L 466 2263 L 467 2269.667969 L 468 2270.332031 L 469 2267 L 470 2264.332031 L 471 2262 L 472 2261.332031 L 474 2262.667969 L 475 2266 L 476 2273.332031 L 477 2280.332031 L 478 2287 L 479 2282.667969 L 480 2273.667969 L 481 2266 L 482 2264.667969 L 483 2272.667969 L 484 2279 L 485 2286 L 486 2288.332031 L 487 2293 L 489 2303 L 490 2305 L 491 2301.667969 L 492 2298.332031 L 493 2304.332031 L 494 2316.667969 L 495 2333.332031 L 496 2342.667969 L 497 2351 L 498 2355 L 499 2358.332031 L 500 2362.667969 L 501 2369.332031 L 503 2393.332031 L 504 2400 L 505 2400 L 506 2395.332031 L 507 2394.332031 L 508 2394.667969 L 509 2397.667969 L 510 2403.332031 L 511 2407.667969 L 512 2412.667969 L 513 2414.332031 L 514 2417.332031 L 515 2418 L 516 2411 L 517 2403 L 518 2398.667969 L 519 2405 L 520 2416.667969 L 521 2417 L 522 2414.332031 L 523 2411.332031 L 524 2418 L 525 2425 L 526 2429.332031 L 527 2435 L 528 2440.332031 L 529 2445.332031 L 531 2450.667969 L 532 2460 L 533 2471.332031 L 534 2484.667969 L 535 2489.667969 L 536 2492 L 537 2488.332031 L 538 2485.332031 L 539 2483.667969 L 540 2486 L 541 2490 L 542 2494.332031 L 543 2507.332031 L 544 2516.667969 L 545 2525.667969 L 546 2526.332031 L 547 2526.667969 L 548 2527.332031 L 549 2528.667969 L 550 2532 L 551 2543.667969 L 552 2555 L 553 2569.667969 L 554 2576.667969 L 555 2586.332031 L 556 2594 L 557 2604.332031 L 558 2612.667969 L 559 2620.667969 L 560 2629.332031 L 561 2637.667969 L 562 2643 L 563 2649 L 564 2655.332031 L 565 2662.667969 L 566 2666 L 567 2668.332031 L 568 2672.667969 L 569 2678.667969 L 570 2684.332031 L 571 2696 L 572 2706 L 573 2719.667969 L 574 2726 L 575 2731.332031 L 576 2732.332031 L 578 2733.667969 L 579 2735.332031 L 581 2724.667969 L 582 2719 L 583 2722 L 584 2727.667969 L 585 2733.667969 L 587 2742.332031 L 588 2744 L 589 2759 L 590 2775.667969 L 591 2794.667969 L 592 2806.667969 L 593 2816.332031 L 594 2826 L 595 2829.667969 L 596 2831.667969 L 597 2839.332031 L 598 2846.332031 L 599 2851.667969 L 600 2855.332031 L 601 2859.667969 L 602 2865.332031 L 603 2866 L 605 2862 L 606 2863.332031 L 607 2864 L 608 2865 L 609 2862.667969 L 610 2864.667969 L 611 2867.667969 L 613 2880.332031 L 614 2885.332031 L 615 2888.667969 L 616 2892.332031 L 617 2893.667969 L 618 2897 L 619 2898.667969 L 620 2901.667969 L 621 2903.332031 L 622 2905.667969 L 623 2909 L 624 2914.332031 L 625 2917.332031 L 626 2919.667969 L 627 2916.332031 L 628 2913.332031 L 629 2915.332031 L 630 2918.332031 L 631 2922.667969 L 632 2922.667969 L 633 2926 L 634 2933.332031 L 635 2940.667969 L 636 2936.332031 L 637 2936.667969 L 638 2937 L 639 2948 L 641 2942 L 642 2938.332031 L 643 2939.667969 L 644 2942 L 645 2948.667969 L 646 2956.667969 L 647 2963 L 648 2964.667969 L 649 2965 L 650 2966 L 651 2970.667969 L 652 2982 L 653 2995 L 654 3004.667969 L 655 3008 L 656 3007 L 657 3007.332031 L 658 3005 L 659 3008 L 660 3013.667969 L 661 3023.332031 L 662 3031.332031 L 663 3036.332031 L 664 3041 L 665 3048.332031 L 666 3054.332031 L 667 3062.332031 L 668 3062.667969 L 669 3061.667969 L 670 3058.332031 L 671 3062 L 672 3069.332031 L 673 3077.332031 L 674 3082.332031 L 675 3086 L 676 3088.667969 L 677 3092 L 678 3088.332031 L 679 3095.332031 L 680 3099.332031 L 681 3109.667969 L 682 3112.332031 L 683 3119.667969 L 684 3122.667969 L 685 3125 L 686 3125.332031 L 687 3129.667969 L 688 3131 L 689 3132 L 690 3132.332031 L 691 3131 L 692 3130 L 693 3135.667969 L 694 3146 L 695 3156.667969 L 696 3164.332031 L 697 3171.332031 L 698 3182.332031 L 699 3190.332031 L 700 3196 L 701 3200.667969 L 702 3206.667969 L 703 3213 L 704 3215.667969 L 705 3217 L 706 3218.667969 L 707 3224.332031 L 708 3230.332031 L 709 3236 L 710 3240 L 711 3232 L 712 3221 L 713 3210.332031 L 714 3220.667969 L 715 3234 L 716 3246 L 717 3249 L 718 3256.667969 L 719 3263.667969 L 720 3269.667969 L 721 3266.332031 L 722 3260.332031 L 723 3258.332031 L 724 3263.332031 L 725 3272.667969 L 726 3278.667969 L 727 3283.667969 L 728 3287 L 729 3293 L 730 3300.332031 L 731 3307.332031 L 732 3317.667969 L 733 3324 L 734 3330 L 735 3330 L 736 3335 L 738 3359 L 739 3371.332031 L 740 3377.667969 L 741 3384 L 742 3388.667969 L 743 3392.332031 L 744 3396 L 745 3408.667969 L 746 3417.332031 L 747 3429.332031 L 748 3427 L 749 3426.667969 L 750 3423 L 751 3423.332031 L 752 3427.332031 L 753 3433 L 754 3438.332031 L 755 3442.332031 L 756 3443.332031 L 757 3444.667969 L 758 3445 L 759 3447.332031 L 760 3451 L 762 3467 L 763 3474 L 764 3476.667969 L 765 3479 L 766 3480 L 767 3482 L 768 3487 L 769 3491 L 770 3493.667969 L 771 3495 L 772 3494 L 773 3495 L 774 3497.332031 L 775 3504.332031 L 776 3512 L 777 3517.667969 L 778 3526.332031 L 779 3535.667969 L 780 3546 L 781 3553 L 782 3559.332031 L 783 3568 L 784 3576 L 785 3582.332031 L 786 3586 L 787 3589 L 788 3596.667969 L 789 3602.667969 L 790 3616.332031 L 791 3626 L 792 3634.332031 L 793 3635.667969 L 794 3636.332031 L 795 3639 L 796 3641 L 797 3645.667969 L 798 3649.332031 L 799 3653.332031 L 800 3655 L 801 3656 L 802 3656.667969 L 803 3656.332031 L 805 3670.332031 L 806 3690.332031 L 807 3707 L 808 3724.332031 L 809 3736 L 810 3744.332031 L 811 3759.667969 L 812 3768.667969 L 813 3776.332031 L 814 3777.332031 L 815 3778.667969 L 816 3781.332031 L 817 3794 L 818 3806.332031 L 819 3819.332031 L 820 3821.667969 L 821 3824 L 822 3830.332031 L 823 3836.332031 L 824 3842 L 825 3849.667969 L 826 3858.332031 L 827 3869 L 828 3874.332031 L 829 3883.667969 L 830 3891.332031 L 831 3897.667969 L 832 3899 L 833 3900 L 834 3902.667969 L 835 3907.332031 L 836 3908.332031 L 837 3908.667969 L 838 3909.667969 L 839 3914.332031 L 840 3918 L 841 3921 L 842 3928 L 843 3936.667969 L 844 3940.667969 L 845 3946.332031 L 846 3953.667969 L 847 3963.667969 L 848 3969 L 849 3971.667969 L 850 3973.667969 L 851 3974.667969 L 852 3975 L 853 3977.332031 L 854 3979.667969 L 855 3982 L 856 3980.667969 L 857 3980.667969 L 858 3982 L 859 3988 L 860 3998 L 861 4010.667969 L 862 4019.332031 L 863 4030.667969 L 864 4038.332031 L 865 4049 L 866 4056.667969 L 868 4076.667969 L 869 4080.667969 L 870 4081.332031 L 871 4081 L 872 4084.332031 L 873 4090.667969 L 874 4096.667969 L 875 4098.667969 L 876 4102 L 877 4106 L 878 4115.667969 L 879 4121.667969 L 880 4127 L 882 4129 L 883 4130.667969 L 884 4131.667969 L 885 4133.667969 L 886 4141.332031 L 887 4150.667969 L 888 4159 L 889 4160 L 891 4160 L 892 4166.332031 L 893 4173 L 894 4185 L 895 4190.667969 L 896 4196.332031 L 897 4197 L 898 4199 L 899 4200 L 900 4199 L 901 4205 L 902 4211.667969 L 903 4220 L 904 4215.332031 L 905 4215 L 906 4216 L 907 4233.332031 L 908 4247.667969 L 909 4260.667969 L 910 4263.667969 L 911 4265.332031 L 912 4266.332031 L 914 4269.667969 L 915 4272 L 916 4276.667969 L 917 4281.332031 L 918 4285.332031 L 919 4279 L 920 4264.332031 L 921 4252 L 922 4253.332031 L 923 4263 L 924 4278 L 925 4291 L 926 4305.332031 L 927 4321 L 928 4332.332031 L 929 4343.667969 L 930 4346 L 931 4347.667969 L 932 4348.667969 L 933 4350.332031 L 934 4355.667969 L 935 4360.332031 L 936 4372.332031 L 937 4381 L 938 4398.332031 L 939 4405.667969 L 940 4417.667969 L 941 4422.332031 L 942 4428.667969 L 943 4431.332031 L 944 4429 L 945 4430 L 946 4425.667969 L 947 4431 L 948 4434 L 949 4436.332031 L 950 4435.667969 L 951 4440.667969 L 952 4450.332031 L 953 4457.667969 L 954 4461.667969 L 955 4466.332031 L 956 4470.667969 L 957 4478 L 958 4480 L 959 4481.667969 L 960 4480.332031 L 961 4479.667969 L 962 4482.667969 L 963 4484 L 964 4491.332031 L 965 4503.667969 L 966 4518 L 967 4531.332031 L 968 4537 L 969 4541 L 970 4544.667969 L 971 4548.332031 L 972 4552 L 973 4555.332031 L 974 4561.667969 L 975 4567.332031 L 976 4574 L 977 4577 L 978 4579.667969 L 979 4567.667969 L 980 4556 L 981 4545 L 982 4547.332031 L 983 4544.332031 L 984 4545.332031 L 985 4548 L 986 4554.667969 L 987 4553.332031 L 988 4550.332031 L 989 4554 L 990 4555.667969 L 991 4557.667969 L 992 4552.667969 L 993 4560.667969 L 994 4568.332031 L 995 4585.332031 L 996 4598.667969 L 997 4617.332031 L 998 4627.667969 L 999 4635.332031 L 1000 4638.332031 L 1002 4649.667969 L 1003 4654.667969 L 1004 4657.332031 L 1005 4659.667969 L 1006 4663 L 1007 4667.667969 L 1008 4678.332031 L 1009 4693.332031 L 1010 4706.667969 L 1011 4715 L 1012 4717 L 1013 4719.667969 L 1014 4725.332031 L 1015 4733.667969 L 1016 4742 L 1017 4755.667969 L 1018 4767.667969 L 1019 4783.332031 L 1020 4780 L 1021 4778 L 1022 4772.332031 L 1023 4775.667969 L 1024 4783.332031 L 1025 4790.667969 L 1026 4798 L 1027 4800 L 1028 4801.667969 L 1029 4809 L 1030 4816 L 1031 4825.332031 L 1032 4830 L 1033 4832.667969 L 1034 4833.332031 L 1035 4834.667969 L 1036 4838.332031 L 1037 4843 L 1038 4852.332031 L 1039 4861.667969 L 1040 4869 L 1041 4871.332031 L 1042 4873.332031 L 1043 4876.667969 L 1044 4878.667969 L 1045 4883.667969 L 1046 4888 L 1047 4897.332031 L 1048 4901.332031 L 1049 4904.332031 L 1050 4902 L 1051 4911 L 1052 4921.667969 L 1053 4931.667969 L 1055 4933.667969 L 1056 4935.332031 L 1057 4938.667969 L 1058 4941.667969 L 1059 4945.332031 L 1060 4947.332031 L 1061 4946.667969 L 1062 4951.667969 L 1063 4954 L 1064 4962 L 1065 4964 L 1066 4965.667969 L 1067 4965.332031 L 1068 4965.667969 L 1069 4970 L 1070 4968.332031 L 1071 4966.332031 L 1072 4959 L 1073 4956.332031 L 1074 4962 L 1075 4972.667969 L 1076 4977 L 1077 4973.332031 L 1078 4969 L 1079 4972 L 1080 4970.667969 L 1081 4969.667969 L 1082 4966.667969 L 1083 4967.332031 L 1084 4969.332031 L 1085 4971 L 1086 4977.667969 L 1087 4982.667969 L 1088 4990.667969 L 1089 4993.332031 L 1090 4997.332031 L 1092 5003.332031 L 1093 5005.667969 L 1094 5009.667969 L 1095 5014 L 1096 5013.667969 L 1097 5011.667969 L 1098 5009.332031 L 1100 5020.667969 L 1101 5027.667969 L 1102 5032 L 1103 5034 L 1104 5034.667969 L 1105 5037.332031 L 1106 5050 L 1107 5061.332031 L 1108 5069.332031 L 1109 5069 L 1110 5075.667969 L 1111 5081.332031 L 1112 5087.332031 L 1113 5096 L 1114 5111.667969 L 1115 5130.332031 L 1116 5140.667969 L 1117 5147 L 1118 5152.667969 L 1119 5155.667969 L 1120 5156.667969 L 1121 5155 L 1122 5156.667969 L 1123 5161.667969 L 1124 5168.332031 L 1125 5178.332031 L 1126 5185 L 1127 5193 L 1129 5203 L 1130 5205 L 1131 5210.667969 L 1132 5216.332031 L 1133 5222 L 1134 5223 L 1135 5221.332031 L 1136 5219.667969 L 1137 5218 L 1138 5220.667969 L 1139 5215.667969 L 1140 5212.667969 L 1141 5208.332031 L 1142 5211.667969 L 1143 5213.332031 L 1145 5214.667969 L 1146 5216.667969 L 1147 5219.332031 L 1148 5225.332031 L 1149 5232.332031 L 1150 5243.667969 L 1151 5252 L 1152 5256.667969 L 1153 5265 L 1154 5274.332031 L 1155 5294 L 1156 5312.332031 L 1157 5329.332031 L 1158 5339.332031 L 1159 5343.332031 L 1160 5344.667969 L 1161 5341.667969 L 1162 5339.332031 L 1163 5340.332031 L 1164 5345 L 1165 5345 L 1166 5344.332031 L 1167 5340 L 1168 5339.332031 L 1169 5340.667969 L 1170 5344 L 1171 5352.332031 L 1172 5359 L 1173 5366 L 1174 5365 L 1175 5363.667969 L 1177 5361.667969 L 1178 5364.332031 L 1179 5368 L 1180 5374.332031 L 1181 5377.667969 L 1182 5379.332031 L 1183 5381 L 1184 5382 L 1185 5384.332031 L 1186 5389 L 1187 5396.332031 L 1188 5399 L 1189 5403.667969 L 1190 5412.332031 L 1191 5424.332031 L 1192 5433 L 1193 5438.332031 L 1194 5446.332031 L 1195 5453.332031 L 1196 5458.332031 L 1197 5464.667969 L 1198 5471 L 1199 5480.332031 L 1200 5486.332031 L 1201 5495.332031 L 1202 5500 L 1203 5506.332031 L 1204 5509.667969 L 1205 5517.332031 L 1206 5527.332031 L 1207 5538.332031 L 1208 5544.332031 L 1209 5546 L 1210 5549 L 1211 5553.332031 L 1212 5563.332031 L 1213 5582.667969 L 1214 5601.332031 L 1215 5615.667969 L 1216 5619 L 1217 5626.332031 L 1218 5636.667969 L 1219 5649 L 1220 5658.667969 L 1221 5664.332031 L 1222 5668.332031 L 1223 5672 L 1224 5678.332031 L 1225 5691.667969 L 1226 5702 L 1227 5709 L 1228 5708 L 1229 5709.332031 L 1230 5710.667969 L 1231 5712.332031 L 1232 5713.667969 L 1233 5715.332031 L 1234 5719.667969 L 1235 5725 L 1236 5734.667969 L 1237 5743.667969 L 1238 5751.667969 L 1239 5755.667969 L 1240 5757.332031 L 1241 5762.332031 L 1242 5768 L 1243 5781.332031 L 1244 5787.667969 L 1245 5794 L 1246 5794.332031 L 1247 5798.667969 L 1248 5805 L 1249 5807.667969 L 1250 5811 L 1251 5817.332031 L 1252 5824.667969 L 1253 5833.667969 L 1254 5837 L 1255 5835.332031 L 1256 5832.332031 L 1257 5830 L 1258 5833.667969 L 1259 5839.332031 L 1260 5844.667969 L 1261 5849 L 1262 5851.667969 L 1263 5840 L 1264 5829.667969 L 1265 5821 L 1266 5825.667969 L 1267 5829.332031 L 1268 5829.667969 L 1269 5839 L 1271 5859 L 1272 5860.332031 L 1274 5865.667969 L 1275 5866 L 1276 5865 L 1277 5865.332031 L 1278 5868.332031 L 1279 5873 L 1280 5878.332031 L 1281 5883.667969 L 1282 5887.667969 L 1283 5887.332031 L 1284 5883 L 1285 5878.332031 L 1286 5877 L 1287 5880.667969 L 1288 5885 L 1289 5888.332031 L 1292 5894.332031 L 1293 5895.332031 L 1294 5895.667969 L 1295 5896 L 1296 5896 L 1297 5899.667969 L 1298 5902.667969 L 1299 5907 L 1300 5903.667969 L 1301 5901.667969 L 1302 5903.332031 L 1303 5909.332031 L 1304 5914 L 1305 5915.332031 L 1306 5915.332031 L 1307 5916 L 1308 5917 L 1309 5919.667969 L 1310 5924 L 1311 5927.667969 L 1312 5932 L 1313 5937 L 1314 5936.332031 L 1315 5935 L 1316 5931.667969 L 1318 5942.332031 L 1319 5947.332031 L 1320 5949.332031 L 1321 5952.332031 L 1322 5958.332031 L 1323 5964 L 1324 5968 L 1325 5970.332031 L 1326 5972.667969 L 1327 5977 L 1328 5980 L 1329 5985 L 1330 5989 L 1331 5991 L 1332 5992 L 1333 5992.667969 L 1334 5991.667969 L 1336 5987.667969 L 1337 5989.332031 L 1338 5991.332031 L 1339 5993 L 1340 5995.332031 L 1341 5997.332031 L 1342 5995.667969 L 1343 5994.332031 L 1344 5993.332031 L 1345 6000 L 1346 6007.332031 L 1347 6019.332031 L 1348 6029 L 1349 6037.332031 L 1350 6041.332031 L 1351 6047.332031 L 1352 6053 L 1353 6058 L 1355 6060 L 1356 6061.332031 L 1357 6062.667969 L 1358 6064.667969 L 1360 6071.332031 L 1361 6074 L 1363 6072 L 1364 6072.332031 L 1365 6074.667969 L 1366 6074.667969 L 1367 6077 L 1368 6080.667969 L 1369 6089 L 1371 6097 L 1372 6098.667969 L 1373 6102.332031 L 1374 6105.332031 L 1375 6108.667969 L 1376 6110.667969 L 1377 6114.667969 L 1378 6125.332031 L 1379 6138.332031 L 1380 6156.332031 L 1381 6168.332031 L 1382 6176 L 1383 6176 L 1384 6178 L 1385 6182 L 1386 6185 L 1387 6188.332031 L 1388 6191.667969 L 1389 6196 L 1390 6193.667969 L 1391 6193.332031 L 1392 6193 L 1393 6196 L 1394 6197 L 1395 6199.667969 L 1396 6203.667969 L 1397 6211.667969 L 1398 6221.332031 L 1399 6228.667969 L 1400 6228.667969 L 1401 6225.332031 L 1402 6223 L 1403 6226.667969 L 1404 6230.667969 L 1405 6235.667969 L 1406 6234.332031 L 1407 6242.332031 L 1408 6258 L 1409 6280 L 1410 6283.332031 L 1411 6279 L 1412 6272 L 1413 6270.667969 L 1414 6268.332031 L 1415 6265 L 1417 6261 L 1418 6261.332031 L 1419 6264.332031 L 1420 6271 L 1421 6276.332031 L 1422 6281.332031 L 1423 6280.332031 L 1424 6279.667969 L 1425 6289 L 1427 6331 L 1428 6342.332031 L 1429 6346.667969 L 1430 6357.667969 L 1431 6375.667969 L 1432 6399.667969 L 1433 6415.667969 L 1434 6425.332031 L 1435 6433 L 1436 6441.667969 L 1437 6451 L 1438 6455 L 1439 6460.332031 L 1440 6465 L 1441 6470.667969 L 1442 6480 L 1443 6488 L 1444 6495.332031 L 1445 6504.667969 L 1446 6514 L 1447 6522.332031 L 1448 6523.667969 L 1449 6528.332031 L 1450 6532.667969 L 1451 6537 L 1452 6533.667969 L 1454 6542.332031 L 1455 6551 L 1456 6554 L 1457 6557.332031 L 1458 6561 L 1459 6562.667969 L 1460 6570.332031 L 1461 6577.667969 L 1462 6585.667969 L 1463 6591 L 1464 6599.332031 L 1465 6607.332031 L 1466 6612.667969 L 1467 6615.667969 L 1468 6624.667969 L 1469 6634 L 1470 6643 L 1471 6645.667969 L 1472 6645.667969 L 1473 6640 L 1474 6636 L 1475 6636.667969 L 1476 6643 L 1477 6651 L 1478 6656.332031 L 1479 6654 L 1480 6646.667969 L 1481 6634.667969 L 1482 6630 L 1483 6627.667969 L 1484 6629.667969 L 1485 6635 L 1486 6639.667969 L 1488 6648.332031 L 1489 6653 L 1490 6659 L 1491 6667 L 1492 6672.667969 L 1493 6677.667969 L 1494 6678 L 1495 6680.332031 L 1496 6681 L 1497 6684.667969 L 1498 6691.332031 L 1499 6700.332031 L 1500 6705.667969 L 1501 6708 L 1502 6711.332031 L 1503 6715 L 1504 6723 L 1505 6728.667969 L 1506 6732.332031 L 1507 6738.332031 L 1508 6746 L 1509 6758 L 1510 6764.332031 L 1511 6782 L 1512 6797.332031 L 1513 6812.667969 L 1514 6812.667969 L 1515 6814.332031 L 1516 6816 L 1517 6820.332031 L 1518 6824 L 1519 6831.667969 L 1520 6836.667969 L 1521 6841 L 1522 6841.667969 L 1523 6843.332031 L 1524 6844.332031 L 1525 6845 L 1526 6847.667969 L 1527 6850.667969 L 1528 6857.332031 L 1529 6863.667969 L 1530 6874 L 1531 6880 L 1532 6888.667969 L 1533 6889.332031 L 1534 6889.667969 L 1535 6888 L 1536 6891.332031 L 1537 6897.332031 L 1538 6901 L 1539 6903.332031 L 1540 6902.332031 L 1541 6905.332031 L 1542 6921.332031 L 1543 6939 L 1544 6954.667969 L 1545 6951 L 1546 6947 L 1547 6942.667969 L 1548 6944.667969 L 1549 6945.332031 L 1550 6944.667969 L 1551 6944 L 1552 6945.332031 L 1553 6947.667969 L 1554 6950.332031 L 1555 6951.667969 L 1556 6954.332031 L 1557 6957.667969 L 1558 6963.332031 L 1559 6968.667969 L 1560 6973.667969 L 1561 6989.667969 L 1562 7006 L 1563 7022.667969 L 1564 7026.332031 L 1565 7029 L 1567 7033 L 1568 7041.667969 L 1570 7058.332031 L 1572 7067.667969 L 1573 7076.667969 L 1574 7087 L 1575 7100 L 1576 7117 L 1577 7122.332031 L 1578 7130.667969 L 1579 7132 L 1580 7140.332031 L 1581 7149 L 1582 7156 L 1583 7163.667969 L 1584 7160.667969 L 1585 7157 L 1586 7152 L 1587 7152.332031 L 1588 7153.667969 L 1589 7162.667969 L 1590 7170.332031 L 1591 7179.667969 L 1592 7183 L 1593 7188.332031 L 1594 7193 L 1595 7198.667969 L 1596 7206.667969 L 1597 7223.332031 L 1598 7237.332031 L 1599 7248 L 1600 7249 L 1601 7251 L 1602 7252.667969 L 1603 7254 L 1604 7257.332031 L 1605 7261 L 1606 7269.332031 L 1607 7277.332031 L 1608 7294 L 1609 7308.332031 L 1610 7323.332031 L 1611 7329.332031 L 1612 7329.332031 L 1613 7326.667969 L 1614 7326.332031 L 1615 7330 L 1616 7334.667969 L 1618 7339.332031 L 1619 7342.332031 L 1620 7344.667969 L 1621 7346.667969 L 1622 7352.667969 L 1623 7360.667969 L 1624 7369 L 1625 7371.667969 L 1627 7374.332031 L 1628 7377 L 1629 7380 L 1630 7388.332031 L 1631 7395.332031 L 1632 7408 L 1633 7418.667969 L 1634 7430.667969 L 1635 7436.667969 L 1636 7439 L 1637 7451.667969 L 1638 7466.667969 L 1639 7488 L 1640 7499.332031 L 1641 7513.332031 L 1642 7521 L 1643 7528 L 1644 7530 L 1645 7534 L 1646 7537.667969 L 1647 7544.667969 L 1648 7550 L 1649 7556 L 1650 7557.667969 L 1651 7559.332031 L 1652 7560 L 1653 7566.667969 L 1654 7573.667969 L 1655 7582 L 1656 7589 L 1657 7595.332031 L 1658 7605 L 1659 7614.332031 L 1660 7629.332031 L 1661 7643.332031 L 1662 7654 L 1663 7654.332031 L 1664 7651 L 1665 7648.667969 L 1666 7650 L 1667 7651 L 1668 7656 L 1669 7663 L 1670 7671 L 1671 7676 L 1672 7680 L 1673 7683 L 1674 7684.667969 L 1675 7685.667969 L 1676 7687 L 1677 7691 L 1678 7699 L 1679 7702.667969 L 1680 7702.332031 L 1681 7698.667969 L 1682 7701 L 1683 7709.667969 L 1684 7718.332031 L 1685 7729.667969 L 1686 7735.332031 L 1687 7740.332031 L 1688 7740.667969 L 1689 7742.667969 L 1690 7743.332031 L 1691 7746 L 1692 7749.667969 L 1693 7758.667969 L 1694 7765.667969 L 1695 7774.667969 L 1697 7790.667969 L 1700 7802.667969 L 1701 7812.332031 L 1702 7819.667969 L 1703 7827 L 1705 7827 L 1706 7830 L 1707 7835.667969 L 1708 7844 L 1709 7854 L 1710 7864.332031 L 1711 7874 L 1712 7876.667969 L 1713 7876.667969 L 1714 7874 L 1715 7878 L 1716 7883.332031 L 1717 7898.667969 L 1718 7909 L 1719 7921 L 1720 7926.332031 L 1721 7932.332031 L 1722 7935.332031 L 1724 7939.332031 L 1725 7941 L 1726 7943.667969 L 1727 7949 L 1728 7955.667969 L 1729 7960.332031 L 1731 7962.332031 L 1732 7963 L 1733 7962.667969 L 1734 7969.332031 L 1735 7974.332031 L 1736 7982.332031 L 1737 7983.332031 L 1738 7986 L 1739 7991.332031 L 1740 7999 L 1741 8007.667969 L 1742 8012 L 1743 8013.667969 L 1744 8014 L 1746 8020 L 1747 8021.667969 L 1748 8026 L 1749 8033.667969 L 1750 8044.667969 L 1751 8049.667969 L 1752 8049.667969 L 1753 8051 L 1754 8053 L 1755 8066 L 1756 8075.667969 L 1757 8086 L 1758 8087 L 1759 8089 L 1760 8091.332031 L 1761 8093.667969 L 1762 8094.332031 L 1763 8095 L 1764 8096.332031 L 1765 8107.667969 L 1766 8128.667969 L 1767 8151.332031 L 1768 8170.332031 L 1769 8184 L 1770 8199 L 1771 8208.667969 L 1772 8215 L 1773 8226.332031 L 1774 8237.667969 L 1775 8251.667969 L 1776 8257 L 1777 8255 L 1778 8246.667969 L 1779 8238.332031 L 1780 8240 L 1781 8242.332031 L 1782 8244 L 1783 8243 L 1784 8247.332031 L 1786 8264.667969 L 1788 8301.332031 L 1789 8319.332031 L 1790 8324 L 1791 8325.332031 L 1792 8333.667969 L 1793 8341 L 1794 8348 L 1795 8347.332031 L 1796 8349.332031 L 1797 8355.332031 L 1798 8367.667969 L 1799 8378.667969 L 1800 8386.332031 L 1801 8393 L 1802 8399.332031 L 1803 8405.667969 L 1804 8408 L 1805 8411.332031 L 1806 8418 L 1807 8426.667969 L 1808 8429.332031 L 1809 8429 L 1810 8435 L 1811 8448.332031 L 1812 8461.332031 L 1813 8466.332031 L 1814 8469 L 1815 8472 L 1816 8474 L 1817 8476.667969 L 1818 8479.667969 L 1820 8484.332031 L 1821 8484.667969 L 1822 8489.667969 L 1823 8495 L 1824 8501 L 1825 8504 L 1827 8514 L 1828 8522 L 1829 8527 L 1830 8536 L 1831 8541.667969 L 1832 8551.332031 L 1833 8559.332031 L 1834 8567.667969 L 1835 8572.332031 L 1836 8576 L 1837 8578.667969 L 1838 8582 L 1839 8585 L 1840 8590.667969 L 1841 8597 L 1842 8610.667969 L 1843 8620.667969 L 1844 8627.667969 L 1845 8624.332031 L 1846 8623.332031 L 1847 8623.667969 L 1848 8626 L 1849 8624.332031 L 1850 8626 L 1851 8631.332031 L 1852 8639.667969 L 1853 8652.332031 L 1854 8662.332031 L 1855 8672 L 1856 8675.332031 L 1857 8680 L 1858 8688 L 1859 8705.332031 L 1860 8722.332031 L 1861 8738.332031 L 1862 8756.332031 L 1863 8763.667969 L 1864 8769.667969 L 1865 8761.332031 L 1866 8761.667969 L 1867 8762.667969 L 1868 8765.332031 L 1869 8768 L 1870 8769.332031 L 1871 8771 L 1872 8770.667969 L 1873 8769 L 1874 8767 L 1875 8772.667969 L 1876 8780.332031 L 1877 8788 L 1878 8793.667969 L 1880 8801.667969 L 1881 8804 L 1882 8810.332031 L 1883 8817.332031 L 1884 8822.332031 L 1885 8825.332031 L 1886 8827.667969 L 1887 8831.667969 L 1888 8833.667969 L 1889 8835 L 1890 8832.332031 L 1891 8830.332031 L 1892 8830 L 1893 8835.332031 L 1894 8843 L 1895 8851 L 1896 8857.332031 L 1897 8860.667969 L 1898 8862.667969 L 1899 8859.332031 L 1901 8856.667969 L 1902 8859 L 1903 8854.667969 L 1904 8849.667969 L 1905 8837.332031 L 1906 8829.667969 L 1907 8831.667969 L 1908 8841 L 1909 8851 L 1910 8855.332031 L 1911 8864.667969 L 1912 8874.332031 L 1913 8880.667969 L 1914 8884 L 1915 8887.667969 L 1916 8891.667969 L 1917 8898.667969 L 1918 8904 L 1919 8910 L 1920 8917.667969 L 1921 8925.667969 L 1922 8925.332031 L 1923 8916.332031 L 1924 8908.332031 L 1925 8907.667969 L 1926 8912 L 1928 8920 L 1929 8924.667969 L 1930 8929.667969 L 1931 8937.667969 L 1932 8942.332031 L 1933 8946.667969 L 1934 8948.667969 L 1935 8953.332031 L 1936 8958 L 1937 8965 L 1938 8974.332031 L 1939 8983.667969 L 1940 8992.667969 L 1941 8996.332031 L 1942 9005.667969 L 1943 9015.332031 L 1944 9025 L 1945 9030.667969 L 1946 9031.667969 L 1947 9036.332031 L 1948 9039.332031 L 1949 9045.332031 L 1950 9057 L 1951 9067 L 1952 9076.667969 L 1953 9077.667969 L 1954 9077.667969 L 1955 9077.332031 L 1956 9074 L 1957 9067.332031 L 1958 9060 L 1959 9056.332031 L 1960 9059 L 1961 9062.332031 L 1962 9073.667969 L 1963 9086 L 1964 9100.332031 L 1965 9110.667969 L 1966 9123 L 1967 9132.667969 L 1968 9138.667969 L 1969 9142.332031 L 1970 9146.667969 L 1972 9159.332031 L 1973 9166 L 1974 9169 L 1975 9171.667969 L 1976 9177.667969 L 1977 9186.667969 L 1978 9196.667969 L 1980 9209.332031 L 1981 9218 L 1982 9230 L 1983 9243 L 1984 9254.332031 L 1985 9264.332031 L 1986 9270.667969 L 1987 9278 L 1988 9284.667969 L 1989 9292.667969 L 1990 9297.332031 L 1991 9305.332031 L 1992 9312.332031 L 1993 9320.332031 L 1994 9330.667969 L 1995 9341 L 1996 9351.667969 L 1997 9359.667969 L 1998 9369.332031 "/>
</g>
</svg>
