<?xml version="1.0" encoding="UTF-8"?>
<svg xmlns="http://www.w3.org/2000/svg" xmlns:xlink="http://www.w3.org/1999/xlink" width="2085pt" height="801pt" viewBox="0 0 2085 801" version="1.1">
<g id="surface1">
<path style="fill:none;stroke-width:1;stroke-linecap:butt;stroke-linejoin:miter;stroke:rgb(0%,0%,0%);stroke-opacity:1;stroke-miterlimit:10;" d="M 0 0 L 16 0 L 16 2 L 30 2 L 30 8 L 36 8 L 36 14 L 44 14 L 44 19 L 98 19 L 98 25 L 109 25 L 109 29 L 113 29 L 113 46 L 122 46 L 122 53 L 128 53 L 128 49 L 128 66 L 134 66 L 134 64 L 136 64 L 136 76 L 143 76 L 143 66 L 158 66 L 158 70 L 158 61 L 162 61 L 162 67 L 174 67 L 174 69 L 183 69 L 183 67 L 184 67 L 184 75 L 188 75 L 188 80 L 197 80 L 197 79 L 206 79 L 206 71 L 214 71 L 214 62 L 214 65 L 214 58 L 214 59 L 229 59 L 229 89 L 229 80 L 229 100 L 246 100 L 246 96 L 246 139 L 255 139 L 255 143 L 255 140 L 255 146 L 267 146 L 267 154 L 270 154 L 270 155 L 272 155 L 272 166 L 272 158 L 276 158 L 276 162 L 276 161 L 282 161 L 282 167 L 296 167 L 296 162 L 296 165 L 296 156 L 296 162 L 296 159 L 296 174 L 299 174 L 299 196 L 313 196 L 313 190 L 313 198 L 314 198 L 314 200 L 322 200 L 322 207 L 322 203 L 331 203 L 331 199 L 331 205 L 334 205 L 334 203 L 334 217 L 334 213 L 343 213 L 343 222 L 352 222 L 352 213 L 358 213 L 358 206 L 358 208 L 366 208 L 366 209 L 368 209 L 368 212 L 368 206 L 368 210 L 373 210 L 373 206 L 401 206 L 401 214 L 423 214 L 423 206 L 423 207 L 423 206 L 423 209 L 423 208 L 423 213 L 429 213 L 429 202 L 429 211 L 436 211 L 436 218 L 439 218 L 439 214 L 443 214 L 443 223 L 443 219 L 443 225 L 444 225 L 444 216 L 446 216 L 446 224 L 458 224 L 458 230 L 472 230 L 472 222 L 472 226 L 480 226 L 480 220 L 480 224 L 480 215 L 482 215 L 482 229 L 484 229 L 484 232 L 490 232 L 490 228 L 490 234 L 490 228 L 490 234 L 491 234 L 491 227 L 516 227 L 516 237 L 530 237 L 530 242 L 544 242 L 544 254 L 544 251 L 549 251 L 549 283 L 556 283 L 556 291 L 573 291 L 573 288 L 573 292 L 573 285 L 588 285 L 588 281 L 588 290 L 601 290 L 601 289 L 601 290 L 601 284 L 601 289 L 601 288 L 603 288 L 603 290 L 606 290 L 606 296 L 606 287 L 606 307 L 606 304 L 606 316 L 606 314 L 606 322 L 611 322 L 611 321 L 620 321 L 620 341 L 620 337 L 637 337 L 637 330 L 637 343 L 655 343 L 655 341 L 655 342 L 671 342 L 671 350 L 671 345 L 671 347 L 675 347 L 675 349 L 676 349 L 676 355 L 676 346 L 676 349 L 690 349 L 690 369 L 694 369 L 694 376 L 694 368 L 702 368 L 702 377 L 708 377 L 708 385 L 708 382 L 712 382 L 712 373 L 712 380 L 712 373 L 719 373 L 719 364 L 719 371 L 719 364 L 719 369 L 725 369 L 725 362 L 725 378 L 729 378 L 729 374 L 736 374 L 736 378 L 736 369 L 740 369 L 740 354 L 760 354 L 760 353 L 760 358 L 760 348 L 764 348 L 764 357 L 764 349 L 764 364 L 766 364 L 766 363 L 769 363 L 769 355 L 769 356 L 774 356 L 774 365 L 778 365 L 778 360 L 783 360 L 783 377 L 783 371 L 783 387 L 801 387 L 801 379 L 804 379 L 804 386 L 813 386 L 813 394 L 825 394 L 825 376 L 825 382 L 840 382 L 840 377 L 840 383 L 844 383 L 844 397 L 844 395 L 845 395 L 845 396 L 845 391 L 852 391 L 852 393 L 856 393 L 856 405 L 877 405 L 877 388 L 880 388 L 880 387 L 898 387 L 898 378 L 898 384 L 906 384 L 906 378 L 906 387 L 916 387 L 916 396 L 932 396 L 932 404 L 938 404 L 938 407 L 953 407 L 953 408 L 956 408 L 956 412 L 956 405 L 966 405 L 966 411 L 966 408 L 966 410 L 987 410 L 987 402 L 987 411 L 988 411 L 988 406 L 989 406 L 989 397 L 995 397 L 995 405 L 1002 405 L 1002 410 L 1005 410 L 1005 423 L 1008 423 L 1008 424 L 1008 416 L 1012 416 L 1012 422 L 1017 422 L 1017 430 L 1032 430 L 1032 427 L 1032 438 L 1032 420 L 1056 420 L 1056 426 L 1069 426 L 1069 428 L 1077 428 L 1077 429 L 1077 423 L 1095 423 L 1095 425 L 1097 425 L 1097 421 L 1097 423 L 1097 419 L 1104 419 L 1104 418 L 1119 418 L 1119 432 L 1123 432 L 1123 433 L 1130 433 L 1130 438 L 1139 438 L 1139 435 L 1159 435 L 1159 446 L 1167 446 L 1167 461 L 1167 449 L 1170 449 L 1170 475 L 1174 475 L 1174 472 L 1174 477 L 1174 474 L 1174 489 L 1174 488 L 1177 488 L 1177 490 L 1177 484 L 1177 495 L 1177 486 L 1179 486 L 1179 501 L 1189 501 L 1189 500 L 1189 509 L 1190 509 L 1190 515 L 1190 507 L 1190 513 L 1190 509 L 1197 509 L 1197 505 L 1206 505 L 1206 501 L 1210 501 L 1210 518 L 1210 515 L 1210 526 L 1210 521 L 1218 521 L 1218 530 L 1225 530 L 1225 521 L 1225 526 L 1225 518 L 1225 519 L 1225 516 L 1233 516 L 1233 512 L 1233 513 L 1233 505 L 1249 505 L 1249 509 L 1251 509 L 1251 516 L 1251 503 L 1251 507 L 1271 507 L 1271 517 L 1276 517 L 1276 529 L 1285 529 L 1285 524 L 1294 524 L 1294 534 L 1299 534 L 1299 539 L 1315 539 L 1315 531 L 1321 531 L 1321 539 L 1334 539 L 1334 526 L 1339 526 L 1339 517 L 1339 523 L 1353 523 L 1353 511 L 1357 511 L 1357 514 L 1358 514 L 1358 499 L 1364 499 L 1364 491 L 1369 491 L 1369 495 L 1370 495 L 1370 498 L 1379 498 L 1379 494 L 1379 500 L 1388 500 L 1388 502 L 1392 502 L 1392 506 L 1395 506 L 1395 513 L 1399 513 L 1399 512 L 1400 512 L 1400 527 L 1400 521 L 1421 521 L 1421 527 L 1426 527 L 1426 530 L 1426 527 L 1430 527 L 1430 518 L 1442 518 L 1442 521 L 1448 521 L 1448 515 L 1448 537 L 1453 537 L 1453 546 L 1453 540 L 1453 546 L 1461 546 L 1461 547 L 1469 547 L 1469 549 L 1481 549 L 1481 555 L 1488 555 L 1488 559 L 1496 559 L 1496 565 L 1501 565 L 1501 570 L 1513 570 L 1513 579 L 1513 559 L 1524 559 L 1524 571 L 1530 571 L 1530 570 L 1530 578 L 1538 578 L 1538 570 L 1544 570 L 1544 580 L 1568 580 L 1568 586 L 1568 579 L 1568 588 L 1585 588 L 1585 600 L 1585 590 L 1599 590 L 1599 601 L 1606 601 L 1606 607 L 1606 606 L 1610 606 L 1610 608 L 1625 608 L 1625 605 L 1625 629 L 1625 620 L 1625 624 L 1632 624 L 1632 630 L 1632 628 L 1632 636 L 1632 627 L 1632 633 L 1633 633 L 1633 636 L 1642 636 L 1642 645 L 1643 645 L 1643 650 L 1643 644 L 1651 644 L 1651 673 L 1654 673 L 1654 682 L 1662 682 L 1662 680 L 1675 680 L 1675 685 L 1680 685 L 1680 690 L 1690 690 L 1690 685 L 1690 694 L 1690 683 L 1704 683 L 1704 677 L 1710 677 L 1710 682 L 1717 682 L 1717 706 L 1721 706 L 1721 714 L 1725 714 L 1725 719 L 1735 719 L 1735 731 L 1739 731 L 1739 734 L 1739 730 L 1742 730 L 1742 721 L 1742 729 L 1766 729 L 1766 730 L 1768 730 L 1768 725 L 1768 745 L 1768 737 L 1787 737 L 1787 738 L 1787 730 L 1795 730 L 1795 742 L 1804 742 L 1804 745 L 1820 745 L 1820 750 L 1835 750 L 1835 754 L 1842 754 L 1842 760 L 1845 760 L 1845 769 L 1848 769 L 1848 774 L 1848 765 L 1849 765 L 1849 756 L 1849 757 L 1851 757 L 1851 772 L 1851 761 L 1851 766 L 1851 757 L 1869 757 L 1869 758 L 1874 758 L 1874 753 L 1875 753 L 1875 752 L 1875 755 L 1878 755 L 1878 758 L 1881 758 L 1881 749 L 1881 767 L 1888 767 L 1888 773 L 1889 773 L 1889 772 L 1889 780 L 1893 780 L 1893 783 L 1902 783 L 1902 777 L 1911 777 L 1911 768 L 1911 777 L 1915 777 L 1915 772 L 1915 789 L 1929 789 L 1929 779 L 1929 790 L 1938 790 L 1938 793 L 1938 785 L 1938 788 L 1938 784 L 1964 784 L 1964 787 L 1968 787 L 1968 779 L 1979 779 L 1979 794 L 1981 794 L 1981 801 L 1987 801 L 1987 789 L 2005 789 L 2005 784 L 2007 784 L 2007 779 L 2014 779 L 2014 785 L 2016 785 L 2016 772 L 2046 772 L 2046 766 L 2051 766 L 2051 754 L 2051 763 L 2058 763 L 2058 776 L 2079 776 L 2079 785 L 2085 785 "/>
</g>
</svg>
