<?xml version="1.0" encoding="UTF-8"?>
<svg xmlns="http://www.w3.org/2000/svg" xmlns:xlink="http://www.w3.org/1999/xlink" width="2085pt" height="898205pt" viewBox="0 0 2085 898205" version="1.1">
<g id="surface6">
<path style="fill:none;stroke-width:1;stroke-linecap:butt;stroke-linejoin:miter;stroke:rgb(0%,0%,0%);stroke-opacity:1;stroke-miterlimit:10;" d="M 0 0 L 16 0 L 30 28 L 36 76 L 44 188 L 98 1214 L 109 1489 L 113 1605 L 122 2019 L 128 2337 L 134 2733 L 136 2861 L 143 3393 L 158 4383 L 162 4627 L 174 5431 L 183 6052 L 184 6119 L 188 6419 L 197 7139 L 206 7850 L 214 8418 L 229 9303 L 246 11003 L 255 12254 L 267 14006 L 270 14468 L 272 14778 L 276 15410 L 282 16376 L 296 18714 L 299 19236 L 313 21980 L 314 22178 L 322 23778 L 331 25605 L 334 26220 L 343 28137 L 352 30135 L 358 31413 L 366 33077 L 368 33495 L 373 34545 L 401 40313 L 423 45021 L 429 46299 L 436 47776 L 439 48430 L 443 49286 L 444 49511 L 446 49943 L 458 52631 L 472 55851 L 480 57659 L 482 58089 L 484 58547 L 490 59939 L 491 60173 L 516 65848 L 530 69166 L 544 72554 L 549 73809 L 556 75790 L 573 80737 L 588 85012 L 601 88782 L 603 89358 L 606 90228 L 611 91838 L 620 94727 L 637 100456 L 655 106630 L 671 112102 L 675 113490 L 690 118725 L 694 120201 L 702 123145 L 708 125407 L 712 126935 L 719 129546 L 725 131760 L 729 133272 L 736 135890 L 740 137366 L 760 144446 L 764 145838 L 766 146566 L 769 147655 L 774 149435 L 778 150895 L 783 152695 L 801 159661 L 804 160798 L 813 164272 L 825 169000 L 840 174730 L 844 176262 L 845 176657 L 852 179394 L 856 180966 L 877 189471 L 880 190635 L 898 197601 L 906 200673 L 916 204543 L 932 210879 L 938 213303 L 953 219408 L 956 220632 L 966 224682 L 987 233292 L 988 233703 L 989 234109 L 995 236491 L 1002 239326 L 1005 240556 L 1008 241825 L 1012 243489 L 1017 245599 L 1032 252049 L 1056 262129 L 1069 267667 L 1077 271091 L 1095 278705 L 1097 279555 L 1104 282488 L 1119 288758 L 1123 290486 L 1130 293517 L 1139 297459 L 1159 306159 L 1167 309727 L 1170 311074 L 1174 312974 L 1177 314438 L 1179 315410 L 1189 320420 L 1197 324492 L 1206 329037 L 1210 331041 L 1218 335209 L 1225 338919 L 1233 343047 L 1249 351127 L 1251 352145 L 1271 362285 L 1276 364870 L 1285 369631 L 1294 374347 L 1299 377017 L 1315 385641 L 1321 388827 L 1334 395834 L 1339 398464 L 1353 405786 L 1357 407830 L 1358 408344 L 1364 411338 L 1369 413793 L 1370 414288 L 1379 418770 L 1388 423270 L 1392 425278 L 1395 426796 L 1399 428848 L 1400 429360 L 1421 440301 L 1430 445044 L 1442 451260 L 1448 454386 L 1453 457071 L 1461 461439 L 1469 465815 L 1481 472403 L 1488 476288 L 1496 480760 L 1501 483585 L 1513 490425 L 1524 496574 L 1530 500000 L 1538 504624 L 1544 508044 L 1568 521964 L 1585 531960 L 1599 540220 L 1606 544427 L 1610 546851 L 1625 555971 L 1632 560339 L 1633 560972 L 1642 566696 L 1643 567341 L 1651 572493 L 1654 574512 L 1662 579968 L 1675 588808 L 1680 592233 L 1690 599133 L 1704 608695 L 1710 612757 L 1717 617531 L 1721 620355 L 1725 623211 L 1735 630401 L 1739 633325 L 1742 635515 L 1766 653011 L 1768 654471 L 1787 668474 L 1795 674314 L 1804 680992 L 1820 692912 L 1835 704162 L 1842 709440 L 1845 711720 L 1848 714027 L 1849 714792 L 1869 729932 L 1874 733722 L 1875 734475 L 1878 736740 L 1881 739014 L 1888 744383 L 1889 745156 L 1893 748276 L 1902 755323 L 1915 765424 L 1929 776470 L 1938 783580 L 1964 803964 L 1968 807112 L 1979 815681 L 1981 817269 L 1987 822075 L 2005 836277 L 2007 837845 L 2014 843298 L 2016 844868 L 2046 868028 L 2051 871858 L 2058 877199 L 2079 893495 L 2085 898205 "/>
</g>
</svg>
