<?xml version="1.0" encoding="UTF-8"?>
<svg xmlns="http://www.w3.org/2000/svg" xmlns:xlink="http://www.w3.org/1999/xlink" width="800pt" height="600pt" viewBox="0 0 800 600" version="1.1">
<g id="surface16">
<path style="fill:none;stroke-width:2;stroke-linecap:butt;stroke-linejoin:miter;stroke:rgb(0%,0%,0%);stroke-opacity:1;stroke-miterlimit:10;" d="M 50 550 L 750 550 "/>
<path style="fill:none;stroke-width:2;stroke-linecap:butt;stroke-linejoin:miter;stroke:rgb(0%,0%,0%);stroke-opacity:1;stroke-miterlimit:10;" d="M 50 550 L 50 50 "/>
<path style="fill:none;stroke-width:2;stroke-linecap:butt;stroke-linejoin:miter;stroke:rgb(100%,0%,0%);stroke-opacity:1;stroke-miterlimit:10;" d="M 50 550 L 357.78125 550 L 360.503906 549.996094 L 390.46875 549.996094 L 393.191406 549.992188 L 406.808594 549.992188 L 409.53125 549.988281 L 417.703125 549.988281 L 420.429688 549.984375 L 425.875 549.984375 L 428.597656 549.980469 L 431.324219 549.980469 L 434.046875 549.976562 L 436.769531 549.976562 L 439.496094 549.972656 L 442.21875 549.972656 L 447.664062 549.964844 L 450.390625 549.960938 L 453.113281 549.960938 L 458.558594 549.953125 L 461.285156 549.945312 L 466.730469 549.9375 L 469.457031 549.933594 L 477.625 549.910156 L 480.351562 549.902344 L 483.074219 549.894531 L 485.796875 549.882812 L 488.519531 549.875 L 491.246094 549.859375 L 493.96875 549.851562 L 496.691406 549.835938 L 499.417969 549.820312 L 502.140625 549.804688 L 504.863281 549.785156 L 507.585938 549.769531 L 510.3125 549.742188 L 513.035156 549.722656 L 515.757812 549.695312 L 518.484375 549.667969 L 521.207031 549.640625 L 523.929688 549.605469 L 526.652344 549.574219 L 529.378906 549.527344 L 532.101562 549.492188 L 534.824219 549.4375 L 537.546875 549.394531 L 540.273438 549.335938 L 542.996094 549.273438 L 545.71875 549.214844 L 548.445312 549.128906 L 551.167969 549.070312 L 553.890625 548.964844 L 556.613281 548.886719 L 559.339844 548.777344 L 562.0625 548.667969 L 564.785156 548.554688 L 567.507812 548.402344 L 570.234375 548.285156 L 572.957031 548.097656 L 575.679688 547.957031 L 578.40625 547.742188 L 581.128906 547.554688 L 583.851562 547.332031 L 586.574219 547.070312 L 589.300781 546.839844 L 592.023438 546.5 L 594.746094 546.238281 L 597.472656 545.839844 L 600.195312 545.507812 L 602.917969 545.074219 L 605.640625 544.621094 L 608.367188 544.167969 L 611.089844 543.570312 L 613.8125 543.078125 L 616.535156 542.339844 L 619.261719 541.75 L 621.984375 540.914062 L 624.707031 540.128906 L 627.433594 539.242188 L 630.15625 538.191406 L 632.878906 537.246094 L 635.601562 535.910156 L 638.328125 534.828125 L 641.050781 533.253906 L 643.773438 531.878906 L 646.5 530.15625 L 649.222656 528.324219 L 651.945312 526.488281 L 654.667969 524.101562 L 657.394531 522.074219 L 660.117188 519.164062 L 662.839844 516.707031 L 665.5625 513.410156 L 668.289062 510.203125 L 671.011719 506.644531 L 673.734375 502.425781 L 676.460938 498.5625 L 679.183594 493.265625 L 681.90625 488.777344 L 684.628906 482.574219 L 687.355469 476.90625 L 690.078125 470.054688 L 692.800781 462.625 L 695.523438 455.207031 L 698.25 445.691406 L 700.972656 437.339844 L 703.695312 425.839844 L 706.421875 415.6875 L 709.144531 402.625 L 711.867188 389.535156 L 714.589844 375.257812 L 717.316406 358.320312 L 720.039062 342.546875 L 722.761719 321.53125 L 725.488281 303.027344 L 728.210938 278.46875 L 730.933594 255.21875 L 733.65625 227.886719 L 736.382812 197.851562 L 739.105469 167.804688 L 741.828125 129.851562 L 744.550781 95.574219 L 747.277344 50 "/>
</g>
</svg>
