<?xml version="1.0" encoding="UTF-8"?>
<svg xmlns="http://www.w3.org/2000/svg" xmlns:xlink="http://www.w3.org/1999/xlink" width="800pt" height="600pt" viewBox="0 0 800 600" version="1.1">
<g id="surface11">
<path style="fill:none;stroke-width:2;stroke-linecap:butt;stroke-linejoin:miter;stroke:rgb(0%,0%,0%);stroke-opacity:1;stroke-miterlimit:10;" d="M 50 550 L 750 550 "/>
<path style="fill:none;stroke-width:2;stroke-linecap:butt;stroke-linejoin:miter;stroke:rgb(0%,0%,0%);stroke-opacity:1;stroke-miterlimit:10;" d="M 50 550 L 50 50 "/>
<path style="fill:none;stroke-width:2;stroke-linecap:butt;stroke-linejoin:miter;stroke:rgb(100%,0%,0%);stroke-opacity:1;stroke-miterlimit:10;" d="M 50 550 L 50 549.613281 L 58.640625 549.613281 L 67.285156 549.355469 L 75.925781 549.320312 L 84.566406 549.289062 L 93.210938 549.261719 L 101.851562 549.226562 L 119.136719 549.226562 L 127.777344 548.972656 L 136.417969 548.9375 L 145.0625 548.648438 L 153.703125 548.582031 L 162.34375 548.519531 L 170.988281 548.488281 L 179.628906 548.457031 L 188.273438 548.199219 L 196.914062 548.164062 L 205.554688 547.617188 L 214.199219 547.519531 L 222.839844 547.164062 L 231.480469 547.070312 L 240.125 546.976562 L 248.765625 546.6875 L 257.40625 546.621094 L 266.050781 545.816406 L 274.691406 545.683594 L 283.332031 544.78125 L 291.976562 544.589844 L 300.617188 544.140625 L 309.257812 543.757812 L 317.902344 543.597656 L 326.542969 542.503906 L 335.183594 542.304688 L 343.828125 540.601562 L 352.46875 540.273438 L 361.109375 538.921875 L 369.753906 538.347656 L 378.394531 537.734375 L 387.035156 536.265625 L 395.679688 535.902344 L 404.320312 533.105469 L 412.964844 532.578125 L 421.605469 529.523438 L 430.246094 528.625 L 438.890625 526.660156 L 447.53125 524.613281 L 456.171875 523.636719 L 464.816406 519.371094 L 473.457031 518.480469 L 482.097656 512.628906 L 490.742188 511.203125 L 499.382812 506.183594 L 508.023438 503.238281 L 516.667969 500.296875 L 525.308594 493.984375 L 533.949219 492.117188 L 542.59375 482 L 551.234375 479.679688 L 559.875 468.8125 L 568.519531 464.4375 L 577.160156 456.476562 L 585.800781 447.222656 L 594.445312 442.410156 L 603.085938 425.984375 L 611.726562 421.796875 L 620.371094 400.8125 L 629.011719 394.117188 L 637.65625 375.289062 L 646.296875 361.660156 L 654.9375 348.890625 L 663.582031 323.207031 L 672.222656 314.207031 L 680.863281 276.792969 L 689.507812 265.914062 L 698.148438 226.101562 L 706.789062 205.78125 L 715.433594 174.179688 L 724.074219 134.867188 L 732.714844 113.097656 L 741.359375 50 "/>
</g>
</svg>
